<?xml version="1.0" encoding="UTF-8"?>
<?xml-stylesheet href="https://cdnjs.cloudflare.com/ajax/libs/font-awesome/6.7.2/css/all.min.css" type="text/css"?>
<svg xmlns="http://www.w3.org/2000/svg" xmlns:xlink="http://www.w3.org/1999/xlink" width="100%" height="100%" stroke-linecap="round" id="graph-div" xmlns:ev="http://www.w3.org/2001/xml-events" style="overflow: hidden; max-width: 100%; touch-action: none; user-select: none; -webkit-user-drag: none; -webkit-tap-highlight-color: rgba(0, 0, 0, 0); background-color: rgb(2, 8, 23);"><g id="viewport-20250926070407133" class="svg-pan-zoom_viewport" transform="matrix(1.3202777777777779,0,0,1.3202777777777779,157.71814430281745,42.43748101611011)" style="transform: matrix(1.32028, 0, 0, 1.32028, 157.718, 42.4375);"><g><path d="M260.333 47.121 C276.773 47.474, 293.86 56.33, 308.949 64.425 C324.038 72.519, 338.57 83.89, 350.866 95.686 C363.161 107.483, 374.423 120.532, 382.72 135.205 C391.018 149.879, 396.792 167.02, 400.65 183.726 C404.508 200.432, 406.824 218.345, 405.868 235.442 C404.912 252.54, 400.513 270.331, 394.914 286.313 C389.315 302.295, 382.001 317.829, 372.272 331.335 C362.543 344.841, 350.126 357.054, 336.54 367.348 C322.953 377.641, 306.757 386.684, 290.752 393.097 C274.746 399.511, 257.279 404.371, 240.508 405.827 C223.738 407.283, 206.818 405.23, 190.129 401.832 C173.441 398.435, 155.643 393.281, 140.377 385.442 C125.112 377.603, 110.652 366.745, 98.536 354.798 C86.421 342.851, 76.056 328.505, 67.684 313.76 C59.311 299.016, 52.288 282.782, 48.303 266.33 C44.319 249.879, 42.62 232, 43.776 215.05 C44.931 198.101, 49.587 180.713, 55.238 164.634 C60.889 148.556, 67.994 132.258, 77.682 118.582 C87.369 104.905, 99.754 92.967, 113.365 82.576 C126.976 72.186, 143.296 62.499, 159.347 56.239 C175.398 49.979, 190.395 45.752, 209.671 45.016 C228.947 44.28, 262.271 49.644, 275.002 51.821 C287.734 53.998, 287.048 55.294, 286.06 58.079" stroke="rgb(0, 0, 0)" stroke-width="2" fill="none"></path></g><g><path d="M47.234 174.03 C47.234 174.03, 47.234 174.03, 47.234 174.03 M47.234 174.03 C47.234 174.03, 47.234 174.03, 47.234 174.03 M44.901 183.225 C46.339 179.436, 49.026 176.934, 50.299 174.807 M44.901 183.225 C45.893 181.607, 48.089 179.415, 50.299 174.807 M43.108 191.579 C48.833 185.367, 52.074 177.778, 53.364 175.585 M43.108 191.579 C45.776 187.288, 49.271 181.327, 53.364 175.585 M42.935 197.407 C44.412 194.036, 49.209 187.418, 55.89 177.204 M42.935 197.407 C45.822 192.478, 49.517 185.1, 55.89 177.204 M42.761 203.236 C45.696 198.142, 49.258 191.61, 58.955 177.982 M42.761 203.236 C49.081 193.941, 55.669 184.464, 58.955 177.982 M42.047 209.906 C49.774 199.256, 56.372 185.089, 62.02 178.76 M42.047 209.906 C47.713 202.097, 51.667 195.145, 62.02 178.76 M41.874 215.734 C48.066 203.336, 57.165 195.506, 65.085 179.537 M41.874 215.734 C48.575 203.887, 57.242 191.973, 65.085 179.537 M41.16 222.404 C50.017 210.774, 56.165 198.155, 68.15 180.315 M41.16 222.404 C47.36 213.357, 52.016 204.707, 68.15 180.315 M40.447 229.075 C50.945 212.787, 63.459 194.689, 71.216 181.092 M40.447 229.075 C47.726 218.133, 56.577 204.464, 71.216 181.092 M40.813 234.061 C54.011 214.612, 65.786 193.205, 74.281 181.87 M40.813 234.061 C47.877 221.691, 55.215 210.557, 74.281 181.87 M41.179 239.048 C50.306 226.195, 57.618 216.658, 77.346 182.648 M41.179 239.048 C51.267 222.209, 62.85 203.252, 77.346 182.648 M42.085 243.193 C51.319 227.433, 63.548 211.682, 80.411 183.425 M42.085 243.193 C50.458 229.422, 59.634 216.326, 80.411 183.425 M42.451 248.179 C52.919 234.334, 61.328 219.202, 83.476 184.203 M42.451 248.179 C53.826 230.684, 63.31 214.026, 83.476 184.203 M43.357 252.324 C54.277 237.031, 65.025 219.639, 86.002 185.822 M43.357 252.324 C59.076 230.256, 71.991 206.732, 86.002 185.822 M43.724 257.31 C52.585 243.405, 61.541 227.314, 89.067 186.6 M43.724 257.31 C57.657 235.858, 71.079 214.457, 89.067 186.6 M44.09 262.297 C58.84 241.175, 72.247 218.688, 92.132 187.377 M44.09 262.297 C55.519 244.828, 66.925 226.748, 92.132 187.377 M44.996 266.442 C59.281 244.656, 70.726 226.024, 95.197 188.155 M44.996 266.442 C55.353 250.11, 63.961 233.881, 95.197 188.155 M46.442 269.745 C61.53 244.431, 81.105 218.561, 98.262 188.933 M46.442 269.745 C59.394 246.382, 75.381 225.147, 98.262 188.933 M47.348 273.89 C59.041 253.092, 72.333 234.467, 101.328 189.71 M47.348 273.89 C62.763 250.863, 76.533 230.239, 101.328 189.71 M48.793 277.193 C60.312 257.624, 73.4 241.776, 104.393 190.488 M48.793 277.193 C67.967 247.716, 86.839 219.463, 104.393 190.488 M50.239 280.496 C65.143 253.873, 84.318 229.011, 107.458 191.266 M50.239 280.496 C64.523 257.573, 78.712 234.971, 107.458 191.266 M51.145 284.64 C67.762 260.762, 83.011 235.341, 110.523 192.043 M51.145 284.64 C73.26 252.054, 93.067 220.38, 110.523 192.043 M52.591 287.943 C75.284 257.973, 94.235 223.733, 113.588 192.821 M52.591 287.943 C68.813 262.858, 85.082 235.711, 113.588 192.821 M53.497 292.088 C76.312 258.286, 97.899 223.394, 116.654 193.598 M53.497 292.088 C76.858 256.752, 100.575 221.379, 116.654 193.598 M54.943 295.391 C71.977 270.393, 88.273 242.118, 119.179 195.218 M54.943 295.391 C77.271 258.581, 101.261 223.847, 119.179 195.218 M56.388 298.694 C69.37 276.534, 85.992 254.043, 122.244 195.995 M56.388 298.694 C78.925 262.763, 103.658 225.091, 122.244 195.995 M57.834 301.997 C76.313 273.841, 96.924 242.07, 125.309 196.773 M57.834 301.997 C76.291 271.001, 95.003 242.313, 125.309 196.773 M225.712 40.2 C225.712 40.2, 225.712 40.2, 225.712 40.2 M225.712 40.2 C225.712 40.2, 225.712 40.2, 225.712 40.2 M59.28 305.3 C73.58 279.508, 90.513 254.456, 128.374 197.551 M59.28 305.3 C80.986 271.155, 102.878 237.453, 128.374 197.551 M225.539 46.028 C226.612 43.987, 228.434 41.678, 228.777 40.977 M225.539 46.028 C227.07 43.874, 227.796 42.304, 228.777 40.977 M60.726 308.603 C77.711 286.282, 92.117 261.058, 131.44 198.328 M60.726 308.603 C84.677 271.648, 108.873 234.155, 131.44 198.328 M225.365 51.856 C229.22 48.26, 231.88 44.529, 232.382 40.913 M225.365 51.856 C227.166 49.494, 228.671 46.58, 232.382 40.913 M62.711 311.064 C81.121 280.608, 100.786 254.817, 134.505 199.106 M62.711 311.064 C89.596 268.19, 116.831 225.842, 134.505 199.106 M225.731 56.843 C229.016 52.558, 230.893 47.756, 235.448 41.691 M225.731 56.843 C229.915 50.192, 233.458 44.859, 235.448 41.691 M64.157 314.367 C81.727 288.054, 97.212 262.136, 137.57 199.883 M64.157 314.367 C93.065 269.152, 121.218 224.753, 137.57 199.883 M225.558 62.671 C230.191 57.184, 233.029 52.8, 239.053 41.626 M225.558 62.671 C229.97 55.785, 236.596 48.043, 239.053 41.626 M66.143 316.828 C83.231 291.038, 101.93 263.2, 140.635 200.661 M66.143 316.828 C91.608 278.3, 118.005 237.66, 140.635 200.661 M225.384 68.5 C228.436 61.642, 233.657 53.068, 242.118 42.404 M225.384 68.5 C230.953 60.209, 236.544 51.259, 242.118 42.404 M67.588 320.131 C87.312 286.967, 108.443 255.736, 143.7 201.439 M67.588 320.131 C93.187 280.448, 116.8 241.333, 143.7 201.439 M225.75 73.486 C234.158 62.05, 239.067 52.938, 245.723 42.34 M225.75 73.486 C232.502 64.073, 238.156 55.837, 245.723 42.34 M69.034 323.434 C87.488 295.725, 102.437 271.296, 146.766 202.216 M69.034 323.434 C83.102 298.924, 100.725 273.897, 146.766 202.216 M225.576 79.314 C234.858 69.205, 241.741 58.215, 248.788 43.117 M225.576 79.314 C231.222 70.06, 238.527 60.478, 248.788 43.117 M71.02 325.896 C90.593 292.617, 110.892 262.717, 149.291 203.836 M71.02 325.896 C100.231 278.288, 131.021 231.424, 149.291 203.836 M225.403 85.143 C237.388 68.657, 247.628 53.14, 252.393 43.053 M225.403 85.143 C232.544 75.547, 237.537 64.833, 252.393 43.053 M72.466 329.199 C92.075 295.682, 115.913 263.47, 152.356 204.613 M72.466 329.199 C92.725 300.973, 110.57 272.048, 152.356 204.613 M225.769 90.129 C236.513 74.455, 246.967 59.265, 255.458 43.831 M225.769 90.129 C233.514 77.987, 241.975 65.236, 255.458 43.831 M74.451 331.66 C102.801 287.131, 131.502 246.823, 155.421 205.391 M74.451 331.66 C104.305 283.911, 135.058 237.869, 155.421 205.391 M225.595 95.958 C238.49 74.845, 252.27 55.359, 259.063 43.767 M225.595 95.958 C236.618 77.82, 248.374 59.768, 259.063 43.767 M76.437 334.121 C94.004 306.368, 112.368 275.358, 158.486 206.168 M76.437 334.121 C105.715 291.177, 133.333 246.359, 158.486 206.168 M225.422 101.786 C239.557 80.951, 250.712 62.295, 262.668 43.702 M225.422 101.786 C236.543 86.011, 247.396 68.949, 262.668 43.702 M78.422 336.582 C107.484 289.289, 138.235 239.9, 161.552 206.946 M78.422 336.582 C111.038 286.353, 143.502 233.189, 161.552 206.946 M225.788 106.773 C242.932 82.115, 257.673 57.288, 265.733 44.48 M225.788 106.773 C239.557 86.621, 251.969 65.772, 265.733 44.48 M80.408 339.043 C101.679 302.673, 127.115 268.419, 164.617 207.724 M80.408 339.043 C101.542 307.451, 120.977 276.709, 164.617 207.724 M225.614 112.601 C234.569 97.737, 244.172 81.397, 268.798 45.258 M225.614 112.601 C236.654 96.115, 246.277 80.792, 268.798 45.258 M82.393 341.505 C108.87 300.628, 133.597 260.823, 167.682 208.501 M82.393 341.505 C109.062 299.008, 136.645 256.195, 167.682 208.501 M225.441 118.429 C240.587 91.911, 255.756 69.938, 271.324 46.877 M225.441 118.429 C242.283 92.5, 259.644 64.797, 271.324 46.877 M84.379 343.966 C104.735 315.627, 123.683 284.487, 170.747 209.279 M84.379 343.966 C111.491 301.944, 137.828 258.692, 170.747 209.279 M225.807 123.416 C244.459 97.795, 259.05 68.016, 274.389 47.655 M225.807 123.416 C243.811 95.314, 260.891 67.688, 274.389 47.655 M86.365 346.427 C121.372 292.381, 154.772 239.463, 173.812 210.057 M86.365 346.427 C105.537 314.298, 126.742 282.903, 173.812 210.057 M225.633 129.244 C238.902 107.677, 253.566 84.376, 277.454 48.432 M225.633 129.244 C245.943 99.264, 266.148 67.945, 277.454 48.432 M88.35 348.888 C120.787 296.892, 153.616 245.563, 176.878 210.834 M88.35 348.888 C115.921 308.286, 141.218 266.785, 176.878 210.834 M225.46 135.073 C245.46 104.226, 265.815 72.582, 280.519 49.21 M225.46 135.073 C238.396 115.591, 250.606 94.119, 280.519 49.21 M90.336 351.349 C115.837 310.852, 144.778 266.749, 179.403 212.454 M90.336 351.349 C124.76 298.838, 157.437 245.604, 179.403 212.454 M225.826 140.059 C248.254 107.22, 270.422 72.627, 283.584 49.988 M225.826 140.059 C238.313 121.157, 251.111 102.012, 283.584 49.988 M92.861 352.969 C123.12 308.73, 151.547 259.23, 182.468 213.231 M92.861 352.969 C114.665 320.984, 134.88 287.813, 182.468 213.231 M225.652 145.888 C243.157 119.411, 263.079 90.338, 286.65 50.765 M225.652 145.888 C241.942 119.765, 258.871 95.1, 286.65 50.765 M94.847 355.43 C124.413 313.754, 151.115 269.183, 185.533 214.009 M94.847 355.43 C124.868 308.188, 153.336 261.995, 185.533 214.009 M225.479 151.716 C243.584 129.387, 257.776 104.932, 289.175 52.385 M225.479 151.716 C246.172 120.077, 267.65 88.785, 289.175 52.385 M96.832 357.891 C123.558 318.594, 146.56 276.2, 188.598 214.786 M96.832 357.891 C120.575 322.464, 142.347 284.998, 188.598 214.786 M225.845 156.703 C249.082 123.615, 269.62 86.665, 292.24 53.162 M225.845 156.703 C248.893 121.945, 269.933 86.204, 292.24 53.162 M98.818 360.352 C120.679 325.734, 145.721 289.214, 191.664 215.564 M98.818 360.352 C136.329 304.962, 172.297 248.21, 191.664 215.564 M225.671 162.531 C243.458 129.55, 265.102 96.757, 295.305 53.94 M225.671 162.531 C242.538 134.935, 262.131 105.535, 295.305 53.94 M101.343 361.972 C137.39 309.961, 167.396 256.043, 194.729 216.342 M101.343 361.972 C127.539 319.54, 155.246 277.052, 194.729 216.342 M225.497 168.359 C247.142 134.127, 269.18 102.03, 298.371 54.717 M225.497 168.359 C245.148 137.499, 264.372 106.249, 298.371 54.717 M103.869 363.591 C128.058 324.657, 153.733 283.13, 197.794 217.119 M103.869 363.591 C125.424 331.019, 145.863 298.404, 197.794 217.119 M225.864 173.346 C254.066 129.836, 282.453 84.898, 300.896 56.337 M225.864 173.346 C244.476 144.578, 262.682 114.257, 300.896 56.337 M105.854 366.052 C140.166 312.135, 172.45 261.256, 200.859 217.897 M105.854 366.052 C128.823 331.195, 151.23 294.724, 200.859 217.897 M225.69 179.174 C244.877 151.613, 264.098 121.045, 303.421 57.956 M225.69 179.174 C256.444 130.318, 286.855 81.282, 303.421 57.956 M108.38 367.672 C136.762 323.482, 166.241 276.91, 203.924 218.674 M108.38 367.672 C140.612 319.051, 171.261 271, 203.924 218.674 M225.516 185.003 C244.095 157.653, 263.308 126.534, 305.947 59.576 M225.516 185.003 C251.092 146.539, 275.396 107.146, 305.947 59.576 M110.905 369.291 C138.402 325.803, 167.423 279.569, 206.989 219.452 M110.905 369.291 C148.301 313.493, 184.133 257.375, 206.989 219.452 M225.343 190.831 C250.027 157.358, 269.894 120.672, 309.012 60.353 M225.343 190.831 C249.956 151.747, 273.464 113.786, 309.012 60.353 M112.891 371.752 C137.428 332.164, 165.318 293.432, 209.515 221.071 M112.891 371.752 C139.974 330.545, 167.684 287.522, 209.515 221.071 M225.709 195.818 C246.646 162.153, 268.233 125.525, 311.537 61.973 M225.709 195.818 C258.289 145.059, 289.891 95.872, 311.537 61.973 M115.416 373.372 C145.944 322.947, 178.157 273.683, 212.58 221.849 M115.416 373.372 C147.28 325.176, 176.148 276.934, 212.58 221.849 M225.535 201.646 C245.376 172.418, 262.142 144.483, 314.063 63.592 M225.535 201.646 C258.699 147.657, 294.13 94.888, 314.063 63.592 M117.941 374.991 C143.576 334.911, 168.264 296.639, 215.645 222.627 M117.941 374.991 C147.103 329.065, 176.553 282.066, 215.645 222.627 M225.362 207.474 C247.165 173.958, 269.097 139.493, 316.588 65.211 M225.362 207.474 C246.491 176.624, 265.791 143.789, 316.588 65.211 M119.927 377.452 C157.995 315.253, 197.05 253.335, 218.71 223.404 M119.927 377.452 C153 329.439, 182.529 280.175, 218.71 223.404 M225.728 212.461 C252.425 164.544, 283.226 119.35, 319.113 66.831 M225.728 212.461 C257.404 160.905, 291.049 108.335, 319.113 66.831 M122.452 379.072 C153.446 335.339, 180.565 289.849, 221.776 224.182 M122.452 379.072 C144.543 345.276, 165.168 313.146, 221.776 224.182 M225.554 218.289 C253.306 172.592, 282.465 126.725, 322.179 67.608 M225.554 218.289 C264.927 159.783, 302.965 98.312, 322.179 67.608 M124.978 380.691 C149.83 341.006, 177.207 297.023, 224.841 224.959 M124.978 380.691 C162.123 320.352, 201.312 260.052, 224.841 224.959 M225.381 224.118 C257.376 175.197, 287.116 124.957, 324.704 69.228 M225.381 224.118 C251.32 181.97, 277.651 139.704, 324.704 69.228 M127.503 382.311 C198.483 272.501, 267.054 162.464, 327.229 70.847 M127.503 382.311 C201.388 267.823, 275.944 152.288, 327.229 70.847 M130.028 383.93 C198.748 279.614, 264.842 176.718, 329.755 72.467 M130.028 383.93 C189.752 289.998, 250.971 195.964, 329.755 72.467 M133.094 384.708 C183.273 309.186, 231.516 233.811, 332.28 74.086 M133.094 384.708 C190.938 295.434, 248.316 205.957, 332.28 74.086 M135.619 386.327 C199.418 286.325, 264.111 185.518, 334.805 75.705 M135.619 386.327 C202.899 283.515, 268.542 180.221, 334.805 75.705 M138.144 387.946 C192.314 308.429, 242.361 226.404, 336.791 78.167 M138.144 387.946 C190.552 309.167, 242.046 229.534, 336.791 78.167 M141.209 388.724 C183.32 327.789, 223.124 264.694, 339.316 79.786 M141.209 388.724 C204.154 286.463, 270.322 184.417, 339.316 79.786 M143.735 390.343 C217.926 272.583, 295.928 154.507, 341.302 82.247 M143.735 390.343 C197.357 307.659, 250.239 225.226, 341.302 82.247 M146.26 391.963 C184.937 329.993, 225.016 269.347, 343.827 83.867 M146.26 391.963 C189.154 325.163, 232.085 259.242, 343.827 83.867 M148.786 393.582 C217.058 284.777, 288.252 175.178, 346.353 85.486 M148.786 393.582 C191.167 328.25, 231.959 262.635, 346.353 85.486 M151.851 394.36 C205.29 309.683, 259.847 225.529, 348.338 87.947 M151.851 394.36 C207.86 305.383, 263.987 218.753, 348.338 87.947 M154.376 395.979 C217.897 297.967, 281.056 199.489, 350.864 89.567 M154.376 395.979 C203.104 318.36, 252.735 240.427, 350.864 89.567 M156.902 397.599 C207.016 316.663, 257.757 238.257, 352.849 92.028 M156.902 397.599 C205.811 323.271, 252.758 250.366, 352.849 92.028 M159.967 398.376 C231.077 287.209, 301.785 176.623, 355.375 93.647 M159.967 398.376 C231.653 285.759, 303.907 172.199, 355.375 93.647 M163.032 399.154 C230.086 296.378, 294.721 193.436, 357.9 95.267 M163.032 399.154 C204.48 333.427, 244.859 270.501, 357.9 95.267 M166.097 399.931 C227.145 309.688, 283.792 218.942, 359.886 97.728 M166.097 399.931 C225.285 310.1, 283.504 217.564, 359.886 97.728 M169.162 400.709 C213.949 332.557, 257.033 264.006, 361.871 100.189 M169.162 400.709 C233.437 302.503, 296.485 204.748, 361.871 100.189 M172.227 401.487 C233.876 310.135, 293.225 214.433, 363.857 102.65 M172.227 401.487 C211.238 340.45, 250.786 280.624, 363.857 102.65 M175.293 402.264 C225.645 327.417, 273.744 253.576, 365.842 105.111 M175.293 402.264 C221.889 328.014, 270.682 252.684, 365.842 105.111 M177.818 403.884 C224.724 328.787, 271.788 255.868, 367.828 107.573 M177.818 403.884 C227.317 325.055, 278.55 245.129, 367.828 107.573 M180.883 404.661 C242.579 308.922, 305.175 212.901, 369.813 110.034 M180.883 404.661 C248.149 300.268, 315.419 196.731, 369.813 110.034 M183.948 405.439 C240.932 317.844, 296.526 230.318, 371.799 112.495 M183.948 405.439 C245.6 308.106, 308.381 212.436, 371.799 112.495 M187.014 406.216 C233.804 335.119, 278.709 264.261, 373.785 114.956 M187.014 406.216 C251.058 309.055, 313.605 210.157, 373.785 114.956 M190.079 406.994 C225.768 349.865, 264.731 289.217, 375.77 117.417 M190.079 406.994 C261.098 295.105, 331.854 184.212, 375.77 117.417 M193.684 406.93 C261.841 302.735, 327.271 199.023, 377.756 119.879 M193.684 406.93 C243.207 330.681, 292.375 254.394, 377.756 119.879 M196.749 407.708 C271.316 293.119, 343.122 180.076, 379.202 123.182 M196.749 407.708 C240.765 338.53, 285.767 269.122, 379.202 123.182 M200.354 407.643 C268.972 300.192, 335.701 193.74, 381.187 125.643 M200.354 407.643 C266.872 303.932, 334.976 197.853, 381.187 125.643 M203.419 408.421 C262.851 314.906, 324.721 222.8, 382.633 128.946 M203.419 408.421 C251.803 335.073, 297.426 262.526, 382.633 128.946 M207.024 408.357 C272.282 309.819, 335.827 210.156, 384.079 132.249 M207.024 408.357 C272.344 308.566, 337.242 208.604, 384.079 132.249 M210.629 408.293 C262.355 326.366, 316.865 245.181, 386.064 134.71 M210.629 408.293 C258.683 330.055, 309.668 250.675, 386.064 134.71 M213.694 409.07 C270.902 322.669, 325.903 236.697, 387.51 138.013 M213.694 409.07 C264.841 327.171, 317.221 246.916, 387.51 138.013 M217.299 409.006 C273.494 321.482, 330.302 232.123, 388.956 141.316 M217.299 409.006 C268.781 329.263, 320.779 249.676, 388.956 141.316 M220.364 409.784 C263.034 348.284, 303.961 284.418, 390.941 143.777 M220.364 409.784 C255.912 356.067, 290.803 302.403, 390.941 143.777 M223.969 409.719 C260.39 352.748, 294.586 297.67, 392.387 147.08 M223.969 409.719 C285.121 315.267, 344.893 220.835, 392.387 147.08 M227.034 410.497 C292.528 309.854, 357.784 211.335, 393.833 150.383 M227.034 410.497 C280.813 326.262, 334.905 241.161, 393.833 150.383 M230.639 410.433 C284.763 327.497, 339.654 241.346, 395.819 152.844 M230.639 410.433 C268.86 348.328, 308.709 287.11, 395.819 152.844 M234.784 409.527 C287.168 329.47, 337.626 251.141, 397.264 156.147 M234.784 409.527 C272.863 347.683, 312.118 285.87, 397.264 156.147 M238.389 409.463 C298.883 319.717, 356.264 228.456, 398.17 160.292 M238.389 409.463 C282.915 339.868, 327.524 271.563, 398.17 160.292 M241.994 409.399 C301.296 316.848, 360.966 227.813, 399.616 163.595 M241.994 409.399 C280.402 352.3, 316.086 295.482, 399.616 163.595 M246.139 408.493 C278.573 356.983, 314.184 303.031, 400.522 167.74 M246.139 408.493 C299.351 327.989, 350.44 248.56, 400.522 167.74 M249.744 408.428 C310.823 314.501, 372.662 219.164, 401.968 171.043 M249.744 408.428 C293.34 341.058, 335.877 272.311, 401.968 171.043 M253.889 407.522 C305.854 323.44, 360.157 237.559, 402.874 175.188 M253.889 407.522 C301.811 331.408, 349.944 255.756, 402.874 175.188 M257.494 407.458 C308.271 330.762, 355.757 253.736, 404.32 178.491 M257.494 407.458 C289.83 357.481, 322.516 307.444, 404.32 178.491 M261.639 406.552 C303.771 341.58, 345.098 275.999, 405.226 182.635 M261.639 406.552 C307.893 332.632, 355.76 258.771, 405.226 182.635 M265.783 405.646 C318.838 322.543, 372.623 239.962, 406.671 185.938 M265.783 405.646 C305.184 345.625, 344.333 285.057, 406.671 185.938 M270.468 403.898 C297.832 355.188, 329.137 310.586, 407.037 190.925 M270.468 403.898 C323.635 321.88, 376.882 238.805, 407.037 190.925 M274.613 402.992 C322.566 330.692, 370.267 255.722, 407.943 195.07 M274.613 402.992 C308.075 352.909, 339.759 302.399, 407.943 195.07 M279.297 401.245 C325.614 325.306, 373.117 253.335, 408.31 200.056 M279.297 401.245 C314.813 347.296, 349.966 293.668, 408.31 200.056 M283.442 400.339 C314.077 354.342, 343.968 304.471, 408.676 205.043 M283.442 400.339 C331.905 326.267, 378.883 252.454, 408.676 205.043 M288.127 398.591 C316.87 351.91, 346.457 305.655, 409.582 209.188 M288.127 398.591 C316.087 352.59, 345.698 307.576, 409.582 209.188 M292.271 397.685 C324.021 348.82, 353.6 299.792, 409.948 214.174 M292.271 397.685 C325.118 345.273, 358.991 292.808, 409.948 214.174 M297.496 395.095 C334.391 337.79, 370.962 281.993, 410.314 219.161 M297.496 395.095 C340.856 327.778, 384.216 261.425, 410.314 219.161 M302.72 392.506 C336.915 339.093, 368.652 287.881, 410.68 224.147 M302.72 392.506 C345.578 327.57, 388.481 260.855, 410.68 224.147 M307.945 389.916 C333.081 351.022, 354.444 315.449, 409.967 230.817 M307.945 389.916 C343.704 336.188, 377.598 283.885, 409.967 230.817 M313.169 387.327 C348.032 328.887, 388.131 271.938, 409.253 237.488 M313.169 387.327 C349.987 328.208, 387.359 268.891, 409.253 237.488 M318.393 384.737 C344.117 344.242, 368.867 305.891, 409.08 243.316 M318.393 384.737 C337.547 353.329, 357.356 321.193, 409.08 243.316 M324.157 381.306 C344.12 349.659, 364.206 319.536, 408.366 249.986 M324.157 381.306 C355.392 329.229, 388.396 279.511, 408.366 249.986 M330.461 377.033 C349.455 347.8, 366.61 318.06, 407.653 256.656 M330.461 377.033 C346.127 353.532, 360.619 328.16, 407.653 256.656 M337.845 371.076 C354.307 346.62, 367.849 326.249, 405.86 265.01 M337.845 371.076 C356.495 344.293, 373.187 315.751, 405.86 265.01 M345.229 365.119 C365.569 336.389, 383.398 303.396, 402.448 275.889 M345.229 365.119 C363.329 337.777, 381.17 309.08, 402.448 275.889 M352.612 359.163 C366.837 336.555, 382.833 317.406, 399.575 285.927 M352.612 359.163 C368.387 333.009, 385.995 307.841, 399.575 285.927 M364.854 345.63 C373.653 334.953, 378.644 322.568, 390.764 305.224 M364.854 345.63 C370.164 335.67, 376.297 326.02, 390.764 305.224" stroke="rgba(11, 0, 0, 0.7)" stroke-width="2.361" fill="none"></path><path d="M225 40 C368.109 41.691, 455.146 193.78, 385.215 317.5 M385.215 317.5 C312.015 442.039, 136.026 441.89, 64.786 317.5 M64.786 317.5 C40.831 276.07, 31.633 222.473, 47.101 174.237 M47.101 174.237 C108.574 192.82, 171.888 208.935, 225 225 M225 225 C224.361 179.646, 226.371 131.141, 225 40" stroke="rgba(0, 0, 0, 0.7)" stroke-width="2" fill="none"></path></g><g><path d="M99.468 89.112 C99.468 89.112, 99.468 89.112, 99.468 89.112 M99.468 89.112 C99.468 89.112, 99.468 89.112, 99.468 89.112 M82.544 107.621 C90.061 99.074, 99.071 93.051, 119.119 73.529 M82.544 107.621 C96.219 93.85, 109.182 81.563, 119.119 73.529 M76.593 115.902 C90.65 101.917, 106.594 89.672, 127.798 68.173 M76.593 115.902 C96.696 96.84, 116.793 78.738, 127.798 68.173 M70.642 124.184 C92.578 101.621, 115.831 81.896, 135.745 63.5 M70.642 124.184 C89.659 106.861, 106.462 89.584, 135.745 63.5 M69.079 128.374 C87.568 112.274, 108.868 91.803, 141.497 60.871 M69.079 128.374 C91.863 108.617, 113.613 87.174, 141.497 60.871 M66.054 133.928 C97.408 105.644, 125.377 78.596, 147.25 58.243 M66.054 133.928 C86.3 116.606, 104.552 98.864, 147.25 58.243 M63.029 139.482 C95.197 108.087, 127.724 76.493, 152.271 56.297 M63.029 139.482 C86.136 117.549, 109.968 95.169, 152.271 56.297 M60.003 145.036 C89.831 118.187, 118.86 90.349, 158.024 53.669 M60.003 145.036 C87.301 117.538, 115.031 92.685, 158.024 53.669 M56.978 150.59 C92.16 119.572, 125.335 88.004, 164.508 50.359 M56.978 150.59 C82.231 128.768, 106.034 106.985, 164.508 50.359 M55.416 154.781 C83.238 126.812, 108.032 103.727, 168.798 49.095 M55.416 154.781 C92.248 120.756, 127.893 88.06, 168.798 49.095 M53.853 158.971 C100.302 115.684, 142.468 76.133, 173.087 47.83 M53.853 158.971 C79.197 137.045, 103.347 115.097, 173.087 47.83 M52.291 163.161 C90.73 127.672, 126.012 93.124, 176.646 47.248 M52.291 163.161 C97.87 118.921, 144.547 76.289, 176.646 47.248 M50.729 167.352 C95.463 126.143, 141.438 83.658, 180.935 45.983 M50.729 167.352 C85.995 135.791, 118.507 104.28, 180.935 45.983 M49.167 171.542 C78.219 141.531, 107.305 115.416, 185.225 44.719 M49.167 171.542 C100.701 124.43, 149.559 75.877, 185.225 44.719 M48.336 175.051 C93.636 131.457, 140.623 87.256, 189.515 43.455 M48.336 175.051 C98.519 129.737, 146.168 85.326, 189.515 43.455 M50.431 175.832 C91.242 135.714, 134.744 97.202, 190.147 45.6 M50.431 175.832 C105.213 123.025, 161.304 71.101, 190.147 45.6 M52.526 176.613 C89.016 141.456, 125.768 109.554, 190.048 48.426 M52.526 176.613 C102.777 127.593, 152.914 81.812, 190.048 48.426 M54.621 177.394 C88.863 145.898, 122.215 113.231, 190.68 50.571 M54.621 177.394 C95.719 139.908, 134.736 102.059, 190.68 50.571 M56.717 178.175 C91.43 147.663, 122.063 114.543, 191.312 52.716 M56.717 178.175 C86.592 151.665, 114.766 124.412, 191.312 52.716 M59.543 178.275 C112.908 132.463, 163.142 82.994, 191.944 54.861 M59.543 178.275 C91.195 146.434, 125.383 115.972, 191.944 54.861 M61.638 179.056 C91.185 152.5, 123.41 123.528, 191.845 57.687 M61.638 179.056 C105.808 138.043, 150.339 96.593, 191.845 57.687 M63.734 179.837 C96.041 149.775, 129.109 117.217, 192.477 59.832 M63.734 179.837 C88.287 157.082, 114.436 131.462, 192.477 59.832 M65.829 180.618 C116.113 133.842, 165.55 85.363, 193.109 61.977 M65.829 180.618 C95.262 150.6, 124.668 122.667, 193.109 61.977 M68.655 180.717 C108.57 141.957, 148.361 103.417, 193.741 64.122 M68.655 180.717 C106.728 143.151, 144.9 108.833, 193.741 64.122 M70.751 181.499 C111.563 139.245, 155.255 100.622, 193.642 66.949 M70.751 181.499 C94.627 158.12, 121.731 133.594, 193.642 66.949 M72.846 182.28 C114.703 143.306, 155.776 104.549, 194.274 69.093 M72.846 182.28 C105.212 150.65, 138.805 118.829, 194.274 69.093 M74.941 183.061 C106.5 156.075, 132.777 126.821, 194.906 71.238 M74.941 183.061 C109.942 149.807, 145.117 117.978, 194.906 71.238 M77.036 183.842 C110.243 154.401, 141.668 123.411, 195.539 73.383 M77.036 183.842 C108.664 154.932, 137.17 126.299, 195.539 73.383 M79.863 183.941 C116.97 146.872, 155.169 113.301, 195.439 76.21 M79.863 183.941 C105.901 160.541, 133.349 133.996, 195.439 76.21 M81.958 184.722 C115.605 152.506, 146.859 123.147, 196.072 78.355 M81.958 184.722 C117.215 149.187, 153.27 116.269, 196.072 78.355 M84.053 185.504 C114.9 157.805, 148.316 125.855, 196.704 80.499 M84.053 185.504 C125.655 145.782, 169.216 105.508, 196.704 80.499 M86.148 186.285 C115.612 160.81, 145.548 130.643, 197.336 82.644 M86.148 186.285 C124.857 149.803, 165.778 113.686, 197.336 82.644 M88.244 187.066 C126.414 152.363, 166.414 116.94, 197.237 85.471 M88.244 187.066 C114.509 162.26, 142.055 137.392, 197.237 85.471 M91.07 187.165 C124.102 154.329, 158.447 126.978, 197.869 87.616 M91.07 187.165 C130.027 150.217, 168.056 115.922, 197.869 87.616 M93.165 187.946 C126.616 159.585, 158.088 129.615, 198.501 89.761 M93.165 187.946 C114.833 167.206, 135.859 147.271, 198.501 89.761 M95.261 188.727 C122.798 165.737, 147.186 140.014, 199.133 91.906 M95.261 188.727 C122.286 164.109, 150.054 139.168, 199.133 91.906 M97.356 189.509 C135.09 155.988, 172.184 118.821, 199.765 94.05 M97.356 189.509 C122.628 166.067, 148.042 140.6, 199.765 94.05 M99.451 190.29 C127.558 162.323, 159.466 135.134, 199.666 96.877 M99.451 190.29 C132.335 159.181, 166.633 128.373, 199.666 96.877 M102.278 190.389 C141.168 153.504, 180.625 116.422, 200.298 99.022 M102.278 190.389 C123.773 171.335, 146.227 150.135, 200.298 99.022 M104.373 191.17 C138.163 161.021, 169.252 131.071, 200.93 101.167 M104.373 191.17 C139.56 161.337, 173.013 128.048, 200.93 101.167 M106.468 191.951 C145.183 157.061, 181.189 121.725, 201.563 103.312 M106.468 191.951 C143.101 157.678, 180.295 122.823, 201.563 103.312 M108.563 192.733 C137.038 164.476, 167.06 138.003, 201.463 106.138 M108.563 192.733 C132.03 170.457, 155.421 148.088, 201.463 106.138 M110.658 193.514 C148.33 161.573, 183.488 128.632, 202.096 108.283 M110.658 193.514 C145.615 160.461, 181.384 128.112, 202.096 108.283 M113.485 193.613 C137.007 170.016, 161.964 145.388, 202.728 110.428 M113.485 193.613 C139.332 170.007, 165.304 147.501, 202.728 110.428 M115.58 194.394 C135.314 176.285, 158.67 156.567, 203.36 112.573 M115.58 194.394 C137.58 174.282, 157.63 154.213, 203.36 112.573 M117.676 195.175 C150.926 161.989, 185.675 131.157, 203.261 115.399 M117.676 195.175 C149.854 165.846, 182.084 136.912, 203.261 115.399 M119.771 195.956 C140.376 180.967, 155.564 160.646, 203.893 117.544 M119.771 195.956 C141.441 175.636, 164.963 154.948, 203.893 117.544 M121.866 196.738 C147.774 174.955, 170.032 152.859, 204.525 119.689 M121.866 196.738 C139.414 181.43, 156.508 164.507, 204.525 119.689 M124.693 196.837 C147.888 175.453, 169.326 156.977, 205.157 121.834 M124.693 196.837 C140.47 179.816, 157.322 163.901, 205.157 121.834 M126.788 197.618 C153.715 171.209, 184.344 144.874, 205.058 124.661 M126.788 197.618 C142.171 181.493, 158.505 168.048, 205.058 124.661 M128.883 198.399 C160.631 170.207, 186.913 144.583, 205.69 126.805 M128.883 198.399 C153.06 174.772, 179.129 151.063, 205.69 126.805 M130.978 199.18 C157.649 174.262, 183.14 149.39, 206.322 128.95 M130.978 199.18 C153.319 179.111, 175.281 157.314, 206.322 128.95 M133.073 199.961 C150.283 183.954, 169.764 166.038, 206.955 131.095 M133.073 199.961 C155.819 178.667, 179.847 155.27, 206.955 131.095 M135.9 200.061 C154.741 180.69, 173.371 163.368, 206.855 133.922 M135.9 200.061 C155.049 183.417, 173.961 164.912, 206.855 133.922 M137.995 200.842 C163.86 175.903, 189.921 152.134, 207.487 136.067 M137.995 200.842 C156.159 184.196, 172.039 167.277, 207.487 136.067 M140.09 201.623 C162.301 182.92, 184.24 161.122, 208.12 138.212 M140.09 201.623 C165.689 178.47, 192.332 153.249, 208.12 138.212 M142.186 202.404 C155.78 186.956, 172.181 174.244, 208.752 140.356 M142.186 202.404 C160.646 185.838, 180.357 168.088, 208.752 140.356 M145.012 202.504 C162.826 182.093, 185.197 165.875, 208.652 143.183 M145.012 202.504 C166.409 184.022, 186.275 164.65, 208.652 143.183 M147.107 203.285 C163.836 184.99, 186.345 165.925, 209.285 145.328 M147.107 203.285 C167.84 184.225, 189.519 164.344, 209.285 145.328 M149.203 204.066 C164.365 190.083, 178.703 174.198, 209.917 147.473 M149.203 204.066 C170.883 184.43, 192.375 163.054, 209.917 147.473 M151.298 204.847 C170.45 189.095, 184.846 174.15, 210.549 149.618 M151.298 204.847 C173.264 184.607, 193.954 163.943, 210.549 149.618 M153.393 205.628 C165.74 192.979, 180.254 183.124, 210.45 152.444 M153.393 205.628 C173.82 186.45, 193.073 167.33, 210.45 152.444 M156.22 205.727 C167.966 195.573, 176.999 185.755, 211.082 154.589 M156.22 205.727 C169.461 195.034, 182.832 181.636, 211.082 154.589 M158.315 206.509 C179.7 187.825, 198.597 167.113, 211.714 156.734 M158.315 206.509 C172.083 194.611, 185.718 181.454, 211.714 156.734 M160.41 207.29 C179.823 188.101, 202.452 169.565, 212.346 158.879 M160.41 207.29 C175.503 192.833, 190.774 179.152, 212.346 158.879 M162.505 208.071 C179.155 191.525, 196.368 175.553, 212.247 161.705 M162.505 208.071 C176.475 194.416, 190.798 180.493, 212.247 161.705 M164.6 208.852 C177.5 197.034, 188.244 186.661, 212.879 163.85 M164.6 208.852 C178.999 196.095, 192.499 182.394, 212.879 163.85 M167.427 208.951 C179.18 199.244, 188.479 188.57, 213.511 165.995 M167.427 208.951 C179.597 196.979, 193.483 184.839, 213.511 165.995 M169.522 209.732 C181.768 197.785, 193.193 186.59, 214.144 168.14 M169.522 209.732 C179.96 200.989, 189.392 191.578, 214.144 168.14 M171.617 210.514 C185.71 196.425, 200.888 182.608, 214.044 170.967 M171.617 210.514 C180.908 203.079, 188.794 194.289, 214.044 170.967 M173.713 211.295 C181.705 201.914, 194.938 194.269, 214.676 173.111 M173.713 211.295 C183.781 202.75, 194.996 193.076, 214.676 173.111 M175.808 212.076 C189.444 197.185, 203.47 185.363, 215.309 175.256 M175.808 212.076 C183.98 204.151, 193.924 196.399, 215.309 175.256 M178.635 212.175 C187.22 206.448, 191.717 199.149, 215.941 177.401 M178.635 212.175 C186.416 204.195, 194.342 197.216, 215.941 177.401 M180.73 212.956 C190.066 206.432, 199.668 197.815, 215.842 180.228 M180.73 212.956 C195.149 201.122, 207.839 187.142, 215.842 180.228 M182.825 213.738 C190.176 205.177, 197.565 200.936, 216.474 182.373 M182.825 213.738 C191.176 207.271, 200.019 198.008, 216.474 182.373 M184.92 214.519 C195.355 205.275, 203.551 196.521, 217.106 184.518 M184.92 214.519 C194.234 204.078, 205.154 195.959, 217.106 184.518 M187.015 215.3 C195.97 207.043, 208.805 196.284, 217.738 186.662 M187.015 215.3 C198.257 204.552, 209.969 193.597, 217.738 186.662 M189.842 215.399 C199.398 209.025, 208.406 199.196, 218.37 188.807 M189.842 215.399 C201.304 205.321, 211.772 195.369, 218.37 188.807 M191.937 216.18 C199.162 210.996, 202.751 203.925, 218.271 191.634 M191.937 216.18 C199.993 208.039, 208.617 200.29, 218.271 191.634 M194.032 216.961 C200.539 211.766, 205.706 206.395, 218.903 193.779 M194.032 216.961 C201.76 209.781, 210.183 201.426, 218.903 193.779 M196.128 217.743 C205.018 208.997, 212.203 202.602, 219.535 195.924 M196.128 217.743 C202.529 212.429, 207.562 207.551, 219.535 195.924 M198.223 218.524 C202.717 215.082, 209.051 209.979, 220.168 198.068 M198.223 218.524 C206.796 211.032, 214 204.699, 220.168 198.068 M201.049 218.623 C205.276 214.772, 208.199 212.221, 220.068 200.895 M201.049 218.623 C206.504 214.065, 211.18 208.65, 220.068 200.895 M203.145 219.404 C207.485 213.801, 211.803 211.165, 220.701 203.04 M203.145 219.404 C209.705 212.818, 216.766 206.912, 220.701 203.04 M205.24 220.185 C211.196 215.82, 218.64 207.632, 221.333 205.185 M205.24 220.185 C211.551 214.637, 216.425 207.997, 221.333 205.185 M207.335 220.966 C210.264 216.133, 214.263 215.412, 221.965 207.33 M207.335 220.966 C210.743 217.454, 215.22 213.207, 221.965 207.33 M209.43 221.748 C213.691 217.147, 219.157 213.772, 221.866 210.156 M209.43 221.748 C212.981 218.383, 217.112 213.931, 221.866 210.156 M212.257 221.847 C215.163 220.548, 218.113 218.076, 222.498 212.301 M212.257 221.847 C214.045 219.151, 217.328 217.515, 222.498 212.301 M214.352 222.628 C217.003 220.192, 221.105 217.514, 223.13 214.446 M214.352 222.628 C215.83 221.195, 217.471 219.237, 223.13 214.446 M216.447 223.409 C218.516 221.737, 220.386 219.19, 223.762 216.591 M216.447 223.409 C218.117 222.29, 219.157 220.866, 223.762 216.591 M218.542 224.19 C219.359 222.544, 220.703 221.518, 223.663 219.417 M218.542 224.19 C219.826 222.6, 221.965 220.935, 223.663 219.417 M220.638 224.972 C221.527 223.27, 223.642 222.546, 224.295 221.562 M220.638 224.972 C221.429 224.266, 222.555 223.553, 224.295 221.562 M223.464 225.071 C223.947 224.455, 224.284 224.195, 224.927 223.707 M223.464 225.071 C223.801 224.777, 224.262 224.248, 224.927 223.707" stroke="rgba(77, 16, 55, 0.7)" stroke-width="2.999" fill="none"></path><path d="M47.101 174.237 C67.564 109.205, 122.926 56.9, 189.348 43.468 M189.348 43.468 C198.803 96.652, 209.897 151.012, 225 225 M225 225 C179.344 213.107, 130.544 199.536, 47.101 174.237" stroke="rgba(0, 0, 0, 0.7)" stroke-width="2" fill="none"></path></g><g><path d="M189.3 43.493 C189.3 43.493, 189.3 43.493, 189.3 43.493 M189.3 43.493 C189.3 43.493, 189.3 43.493, 189.3 43.493 M189.769 46.62 C192.88 44.547, 195.45 43.785, 197.791 42.539 M189.769 46.62 C191.913 45.383, 194.659 44.222, 197.791 42.539 M190.238 49.747 C195.867 47.709, 198.22 44.918, 205.39 42.039 M190.238 49.747 C194.552 47.108, 196.893 46.149, 205.39 42.039 M190.707 52.874 C198.77 48.421, 208.382 43.803, 213.88 41.085 M190.707 52.874 C197.91 49.44, 204.309 46.392, 213.88 41.085 M192.067 55.548 C199.217 53.326, 205.659 49.335, 222.371 40.131 M192.067 55.548 C203.226 50.382, 211.63 45.055, 222.371 40.131 M192.536 58.676 C204.956 51.066, 213.45 47.067, 225.514 41.898 M192.536 58.676 C202.893 52.233, 214.29 47.256, 225.514 41.898 M193.005 61.803 C202.152 55.841, 207.468 53.892, 225.092 45.479 M193.005 61.803 C201.527 58.086, 209.418 53.974, 225.092 45.479 M193.474 64.93 C202.181 58.302, 215.062 55.774, 225.561 48.607 M193.474 64.93 C200.351 61.896, 207.245 57.066, 225.561 48.607 M193.943 68.057 C200.234 65.696, 210.078 59.15, 225.138 52.187 M193.943 68.057 C202.752 64.55, 208.739 59.968, 225.138 52.187 M194.412 71.185 C199.061 69.171, 207.604 63.39, 225.607 55.315 M194.412 71.185 C202.852 67.225, 210.38 64.242, 225.607 55.315 M195.773 73.859 C204.66 68.859, 209.726 66.359, 225.185 58.895 M195.773 73.859 C205.508 68.743, 216.78 63.795, 225.185 58.895 M196.242 76.986 C204.05 73.611, 206.838 69.512, 225.654 62.023 M196.242 76.986 C202.738 73.475, 209.602 69.946, 225.654 62.023 M196.711 80.113 C200.748 76.771, 208.762 72.227, 225.232 65.603 M196.711 80.113 C204.602 76.231, 212.289 72.454, 225.232 65.603 M197.18 83.241 C203.884 80.161, 209.811 78.299, 225.701 68.731 M197.18 83.241 C202.778 80.422, 210.335 76.709, 225.701 68.731 M197.649 86.368 C205.469 83.77, 210.662 81.462, 225.279 72.311 M197.649 86.368 C205.87 81.067, 214.154 77.407, 225.279 72.311 M198.118 89.495 C209.962 83.788, 219.431 78.87, 225.748 75.439 M198.118 89.495 C206.992 84.52, 212.921 82.392, 225.748 75.439 M198.587 92.622 C203.977 90.969, 210.844 85.52, 225.325 79.019 M198.587 92.622 C203.789 89.322, 211.517 87.062, 225.325 79.019 M199.947 95.296 C207.945 92.72, 216.298 87.473, 225.794 82.147 M199.947 95.296 C208.729 91.739, 215.978 86.962, 225.794 82.147 M200.416 98.424 C207.558 94.726, 216.077 89.738, 225.372 85.727 M200.416 98.424 C206.186 94.84, 213.402 92.916, 225.372 85.727 M200.885 101.551 C208.374 99.16, 211.995 93.097, 225.841 88.855 M200.885 101.551 C207.195 98.102, 214.773 94.132, 225.841 88.855 M201.354 104.678 C206.113 103.401, 212.987 96.997, 225.419 92.436 M201.354 104.678 C210.056 99.87, 219.295 95.301, 225.419 92.436 M201.823 107.806 C210.428 102.068, 215.899 100.31, 224.997 96.016 M201.823 107.806 C209.252 103.555, 217.788 99.791, 224.997 96.016 M202.292 110.933 C209.146 106.739, 212.173 105.204, 225.466 99.144 M202.292 110.933 C210.008 107.217, 218.543 102.578, 225.466 99.144 M202.761 114.06 C208.71 112, 214.167 108.214, 225.043 102.724 M202.761 114.06 C207.481 111.99, 213.979 107.878, 225.043 102.724 M204.121 116.734 C213.787 111.719, 220.513 109.051, 225.512 105.852 M204.121 116.734 C209.887 112.634, 215.168 111.11, 225.512 105.852 M204.59 119.861 C210.813 117.375, 219.171 111.831, 225.09 109.432 M204.59 119.861 C210.006 116.17, 217.139 114.575, 225.09 109.432 M205.059 122.989 C211.885 121.559, 218.444 116.162, 225.559 112.56 M205.059 122.989 C212.352 118.492, 219.018 115.734, 225.559 112.56 M205.529 126.116 C213.714 122.505, 216.33 119.71, 225.137 116.14 M205.529 126.116 C214.08 121.915, 220.124 117.886, 225.137 116.14 M205.998 129.243 C213.745 125.981, 221.067 120.791, 225.606 119.268 M205.998 129.243 C209.788 127.555, 215 124.515, 225.606 119.268 M206.467 132.371 C211.414 131.881, 214.4 128.896, 225.184 122.848 M206.467 132.371 C213.441 129.396, 217.745 126.917, 225.184 122.848 M206.936 135.498 C212.456 135.035, 218.165 132.462, 225.653 125.976 M206.936 135.498 C213.217 130.826, 221.565 129.079, 225.653 125.976 M208.296 138.172 C212.907 134.934, 214.741 135.357, 225.23 129.556 M208.296 138.172 C214.515 135.817, 219.007 131.845, 225.23 129.556 M208.765 141.299 C215.502 137.404, 222.628 135.31, 225.699 132.684 M208.765 141.299 C212.939 139.006, 216.123 136.873, 225.699 132.684 M209.234 144.426 C214.747 141.517, 219.268 138.559, 225.277 136.265 M209.234 144.426 C213.132 142.408, 216.796 141.22, 225.277 136.265 M209.703 147.554 C212.83 145.46, 217.819 145.904, 225.746 139.392 M209.703 147.554 C213.672 146.154, 216.438 144.543, 225.746 139.392 M210.172 150.681 C214.212 150.07, 216.11 147.119, 225.324 142.973 M210.172 150.681 C214.862 148.386, 219.668 146.104, 225.324 142.973 M210.641 153.808 C215.894 150.309, 220.123 148.252, 225.793 146.1 M210.641 153.808 C215.519 151.374, 220.476 149.336, 225.793 146.1 M212.001 156.482 C215.382 154.932, 220.357 152.329, 225.371 149.681 M212.001 156.482 C215.902 154.816, 218.726 153.297, 225.371 149.681 M212.47 159.609 C216.344 157.284, 218.219 156.503, 225.84 152.808 M212.47 159.609 C216.517 158.238, 218.574 156.452, 225.84 152.808 M212.939 162.737 C216.683 161.473, 220.137 158.543, 225.417 156.389 M212.939 162.737 C217.786 160.924, 222.466 157.919, 225.417 156.389 M213.408 165.864 C216.646 164.173, 222.253 162.918, 224.995 159.969 M213.408 165.864 C217.734 163.317, 221.998 161.883, 224.995 159.969 M213.877 168.991 C217.867 167.606, 221.353 165.054, 225.464 163.097 M213.877 168.991 C217.564 167.08, 221.09 165.493, 225.464 163.097 M214.346 172.119 C218.256 171.229, 220.253 167.831, 225.042 166.677 M214.346 172.119 C217.465 170.755, 221.692 169.062, 225.042 166.677 M214.815 175.246 C217.237 173.798, 220.058 173.871, 225.511 169.805 M214.815 175.246 C216.976 173.406, 219.761 173.268, 225.511 169.805 M216.176 177.92 C219.727 175.857, 223.069 173.627, 225.089 173.385 M216.176 177.92 C218.259 176.139, 220.996 175.697, 225.089 173.385 M216.645 181.047 C217.843 179.043, 220.844 178.768, 225.558 176.513 M216.645 181.047 C220.256 179.838, 223.069 178.02, 225.558 176.513 M217.114 184.174 C219.003 183.849, 219.977 181.974, 225.135 180.093 M217.114 184.174 C218.98 183.359, 220.371 182.463, 225.135 180.093 M217.583 187.302 C219.736 185.21, 223.148 185.274, 225.604 183.221 M217.583 187.302 C219.652 186.808, 221.366 185.18, 225.604 183.221 M218.052 190.429 C220.314 189.467, 223.83 187.161, 225.182 186.802 M218.052 190.429 C220.684 189.031, 223.353 188.304, 225.182 186.802 M218.521 193.556 C219.541 192.842, 221.613 192.472, 225.651 189.929 M218.521 193.556 C221.438 192.361, 224.097 191.159, 225.651 189.929 M218.99 196.684 C220.14 196.19, 222.771 195.533, 225.229 193.51 M218.99 196.684 C221.643 195.838, 223.677 194.06, 225.229 193.51 M220.35 199.357 C221.518 198.305, 222.868 198.143, 225.698 196.637 M220.35 199.357 C222.204 198.543, 223.544 197.638, 225.698 196.637 M220.819 202.485 C221.6 201.31, 223.291 201.441, 225.275 200.218 M220.819 202.485 C222.134 202.057, 223.039 201.445, 225.275 200.218 M221.288 205.612 C222.41 205.499, 223.058 204.783, 225.745 203.345 M221.288 205.612 C222.108 204.979, 223.172 204.807, 225.745 203.345 M221.757 208.739 C222.257 208.018, 222.988 207.601, 225.322 206.926 M221.757 208.739 C222.843 208.284, 223.578 207.622, 225.322 206.926 M222.226 211.867 C222.88 211.538, 223.669 211.379, 225.791 210.053 M222.226 211.867 C223.111 211.278, 224.089 210.844, 225.791 210.053 M222.695 214.994 C223.96 214.386, 224.483 213.924, 225.369 213.634 M222.695 214.994 C223.626 214.611, 224.255 214.108, 225.369 213.634 M223.164 218.121 C223.84 217.708, 225.17 217.09, 225.838 216.761 M223.164 218.121 C224.136 217.628, 225.274 217.061, 225.838 216.761 M224.524 220.795 C224.823 220.659, 225.055 220.47, 225.416 220.342 M224.524 220.795 C224.705 220.646, 224.922 220.602, 225.416 220.342 M224.993 223.922 C224.993 223.922, 224.993 223.922, 224.993 223.922 M224.993 223.922 C224.993 223.922, 224.993 223.922, 224.993 223.922" stroke="rgba(63, 82, 88, 0.7)" stroke-width="2.13" fill="none"></path><path d="M189.348 43.468 C199.196 41.483, 213.947 39.175, 225 40 M225 40 C224.461 92.052, 224.818 141.723, 225 225 M225 225 C211.778 153.98, 199.909 85.5, 189.348 43.468" stroke="rgba(0, 0, 0, 0.7)" stroke-width="2" fill="none"></path></g><g class="text-container" transform="matrix(1 0 0 1 308.574 335.757)"><text class="slice" style="text-anchor: middle;font-style: normal;font-weight: 400;font-size: 17px;font-family: Comic Sans MS, cursive;" stroke="none" stroke-width="1px" fill="rgb(204, 204, 204)" text-anchor="middle" dominant-baseline="auto">79%</text></g><g class="text-container" transform="matrix(1 0 0 1 131.097 122.854)"><text class="slice" style="text-anchor: middle;font-style: normal;font-weight: 400;font-size: 17px;font-family: Comic Sans MS, cursive;" stroke="none" stroke-width="1px" fill="rgb(204, 204, 204)" text-anchor="middle" dominant-baseline="auto">17%</text></g><g class="text-container" transform="matrix(1 0 0 1 211.568 86.9017)"><text class="slice" style="text-anchor: middle;font-style: normal;font-weight: 400;font-size: 17px;font-family: Comic Sans MS, cursive;" stroke="none" stroke-width="1px" fill="rgb(204, 204, 204)" text-anchor="middle" dominant-baseline="auto">3%</text></g><g class="text-container" transform="matrix(1 0 0 1 225 225)"><text x="0" y="-200" class="pieTitleText" style="font-style: normal;font-weight: 400;font-size: 25px;font-family: Comic Sans MS, cursive;" stroke="none" stroke-width="1px" fill="rgb(226, 220, 214)" text-anchor="middle" dominant-baseline="auto">OS Usage</text></g><g><path d="M440.776 192.26 C440.776 192.26, 440.776 192.26, 440.776 192.26 M440.776 192.26 C440.776 192.26, 440.776 192.26, 440.776 192.26 M440.589 194.741 C441.535 194.46, 442.361 193.748, 443.476 192.213 M441.001 195.197 C441.482 194.167, 442.334 193.489, 443.48 191.917 M441.661 198.268 C442.253 196.924, 443.756 194.532, 446.182 192.577 M441.461 197.978 C442.481 196.091, 443.906 195.331, 446.633 191.537 M440.225 202.348 C443.466 198.562, 446.234 193.611, 449.454 192.139 M440.819 200.843 C442.309 199.113, 444.526 196.291, 449.476 191.807 M441.105 205.55 C445.597 199.977, 447.341 195.87, 452.038 193.756 M441.009 204.061 C444.546 199.668, 448.116 196.028, 452.145 192.535 M439.68 205.48 C443.745 203.716, 445.245 201.147, 454.058 191.88 M440.8 207.444 C445.873 200.842, 450.849 194.855, 454.636 191.489 M443.247 208.558 C447.464 201.683, 453.17 194.756, 457.469 191.004 M440.395 210.244 C445.183 205.946, 447.854 201.844, 458.043 192.646 M445.536 209.706 C446.396 205.978, 455.09 201.327, 459.956 193.359 M444.123 210.207 C446.46 206.481, 450.982 203.655, 459.383 191.497 M444.551 211.116 C450.019 205.564, 455.662 199.596, 461.02 193.787 M446.294 209.296 C450.524 205.181, 455.575 200.938, 458.462 194.831 M448.68 209.563 C452.478 208.041, 454.74 203.994, 460.154 197.422 M449.212 209.612 C451.846 206.302, 456.445 202.441, 459.513 198.287 M452.349 208.902 C454.975 207.69, 457.288 203.886, 458.799 201.282 M452 210.009 C453.794 208.144, 456.235 205.536, 459.079 201.344 M454.505 210.607 C455.196 208.53, 456.459 207.26, 459.732 204.518 M454.27 210.223 C455.945 208.03, 457.979 205.29, 459.499 203.961 M457.137 210.05 C457.543 209.226, 458.357 208.693, 458.859 207.91 M456.919 210.128 C457.61 209.453, 458.209 208.656, 458.959 207.878" stroke="rgb(11, 0, 0)" stroke-width="0.927" fill="none"></path><path d="M441.389 193.227 C446.369 191.082, 451.028 191.706, 458.265 193.061 M440.569 191.459 C446.556 191.125, 450.266 192.143, 459.827 191.881 M457.398 191.38 C459.719 194.664, 459.637 198.993, 460.381 208.864 M458.359 192.68 C458.478 195.532, 458.827 199.269, 458.622 209.687 M458.431 210.605 C452.772 209.428, 449.367 210.311, 441.682 208.492 M459.07 209.95 C455.76 210.71, 451.796 210.091, 440.556 209.588 M441.889 210.113 C441.243 205.858, 440.085 199.44, 439.462 192.799 M441.657 210.768 C440.843 205.418, 440.506 201.644, 441.027 191.545" stroke="rgb(11, 0, 0)" stroke-width="1" fill="none"></path></g><g class="text-container" transform="matrix(1 0 0 1 441 192)"><text x="22" y="14" style="font-style: normal;font-weight: 400;font-size: 17px;font-family: Comic Sans MS, cursive;" stroke="none" stroke-width="1px" fill="rgb(226, 220, 214)" text-anchor="start" dominant-baseline="auto">Linux</text></g><g><path d="M441.054 213.95 C441.054 213.95, 441.054 213.95, 441.054 213.95 M441.054 213.95 C441.054 213.95, 441.054 213.95, 441.054 213.95 M441.3 216.451 C442.037 216.278, 442.877 215.008, 444.205 214.222 M440.94 216.812 C442.001 215.983, 442.735 215.052, 443.986 213.982 M440.664 219.71 C442.422 217.901, 443.492 217.374, 446.579 214.421 M440.991 219.916 C442.955 217.719, 445.659 215.322, 446.922 214.473 M440.59 221.661 C442.39 221.023, 444.233 218.848, 449.162 215.237 M440.653 222.35 C443.584 220.156, 446.308 216.933, 449.308 214.737 M439.516 225.095 C445.127 220.125, 449.422 216.425, 453.057 215.025 M441.21 224.874 C442.372 222.667, 445.197 221.46, 451.926 214.798 M441.462 228.524 C447.273 221.675, 451.908 215.293, 454.834 213.826 M441.796 228.159 C447.552 221.649, 452.935 217.384, 455.982 214.504 M441.784 231.851 C445.447 226.481, 447.002 224.556, 459.389 214.959 M441.412 230.4 C446.488 226.148, 451.008 221.302, 458.21 214.807 M440.693 232.457 C446.428 230.504, 450.127 226.928, 459.628 217.634 M441.198 232.769 C448.709 226.211, 455.079 219.175, 459.973 215.503 M444.067 231.583 C446.711 230.787, 453.666 225.412, 459.871 220.385 M444.512 232.096 C450.351 226.884, 454.508 222.376, 459.321 219.372 M447.819 232.933 C448.712 231.47, 452.557 226.019, 459.639 222.067 M447.831 232.415 C452.086 229.291, 454.796 225.97, 459.28 222.145 M449.25 231.843 C454.308 228.365, 458.994 224.607, 460.231 223.966 M450.209 232.855 C453.648 229.384, 457.365 225.687, 460.111 223.27 M452.572 231.904 C455.648 230.428, 456.191 229.839, 459.478 227.052 M452.986 233.017 C456.029 230.093, 458.279 227.723, 459.744 226.613 M455.666 233.035 C457.114 231.655, 458.169 230.871, 460.066 229.912 M456.15 233.016 C457.135 231.811, 458.664 230.306, 459.616 229.302" stroke="rgb(77, 16, 55)" stroke-width="0.843" fill="none"></path><path d="M441.478 215.616 C447.615 213.499, 454.171 214.027, 459.003 214.035 M459.053 214.347 C457.313 217.42, 459.713 224.426, 457.423 231.097 M459.09 230.858 C450.444 232.779, 445.822 231.272, 440.882 233.653 M439.563 232.822 C440.716 227.064, 440.528 222.046, 441.755 213.61" stroke="rgb(77, 16, 55)" stroke-width="1" fill="none"></path></g><g class="text-container" transform="matrix(1 0 0 1 441 214)"><text x="22" y="14" style="font-style: normal;font-weight: 400;font-size: 17px;font-family: Comic Sans MS, cursive;" stroke="none" stroke-width="1px" fill="rgb(226, 220, 214)" text-anchor="start" dominant-baseline="auto">MacOS</text></g><g><path d="M440.825 236.242 C440.825 236.242, 440.825 236.242, 440.825 236.242 M440.825 236.242 C440.825 236.242, 440.825 236.242, 440.825 236.242 M440.963 241.639 C442.26 240.119, 442.898 239.171, 443.863 236.74 M440.707 241.234 C441.468 240.052, 442.354 239.272, 444.401 236.572 M441.805 246.786 C444.22 242.315, 446.138 241.826, 447.532 236.568 M440.98 245.774 C443.875 242.557, 445.94 238.774, 448.549 235.882 M442.362 250.166 C444.574 247.897, 447.856 239.273, 453.108 237.28 M440.936 250.353 C445.146 246.244, 448.645 241.974, 452.819 235.972 M443.061 256.586 C444.375 248.24, 449.188 245.351, 454.806 235.539 M441.919 254.467 C444.608 249.679, 447.846 245.502, 455.837 236.454 M443.952 256.757 C449.004 249.296, 454.693 241.342, 457.834 237.107 M445.243 255.577 C449.616 251.48, 451.64 246.712, 458.576 236.502 M448.956 254.266 C450.872 252.403, 453.664 250.644, 459.376 241.734 M449.805 254.602 C452.084 252.122, 454.642 249.267, 460.243 241.918 M453.38 255.193 C455.456 252.229, 455.305 250.729, 459.985 246.563 M453.657 255.478 C454.526 252.401, 456.72 249.886, 459.348 245.804 M456.717 255.309 C457.599 253.695, 458.448 252.831, 459.07 252.053 M456.577 255.05 C457.186 254.313, 457.688 253.541, 459.187 252.019" stroke="rgb(63, 82, 88)" stroke-width="0.635" fill="none"></path><path d="M439.823 236.774 C446.458 236.415, 453.999 236.738, 459.095 236.4 M460.352 235.224 C457.535 242.224, 457.406 246.923, 458.208 254.18 M458.51 253.816 C452.767 252.46, 450.767 254.453, 440.144 255.023 M439.383 252.556 C441.923 247.952, 442.482 240.429, 440.631 236.304" stroke="rgb(63, 82, 88)" stroke-width="1" fill="none"></path></g><g class="text-container" transform="matrix(1 0 0 1 441 236)"><text x="22" y="14" style="font-style: normal;font-weight: 400;font-size: 17px;font-family: Comic Sans MS, cursive;" stroke="none" stroke-width="1px" fill="rgb(226, 220, 214)" text-anchor="start" dominant-baseline="auto">Windows</text></g></g></svg>